<?xml version="1.0" encoding="UTF-8"?>
<!DOCTYPE svg PUBLIC "-//W3C//DTD SVG 1.1//EN" "http://www.w3.org/Graphics/SVG/1.1/DTD/svg11.dtd">
<!-- Creator: CorelDRAW (Evaluation Version) -->
<svg xmlns="http://www.w3.org/2000/svg" xml:space="preserve" width="5.5625in" height="4.78349in" version="1.1" style="shape-rendering:geometricPrecision; text-rendering:geometricPrecision; image-rendering:optimizeQuality; fill-rule:evenodd; clip-rule:evenodd"
viewBox="0 0 5672.27 4877.89"
 xmlns:xlink="http://www.w3.org/1999/xlink"
 xmlns:xodm="http://www.corel.com/coreldraw/odm/2003">
 <defs>
  <style type="text/css">
   <![CDATA[
    .str0 {stroke:#2C9650;stroke-width:7.08;stroke-miterlimit:2.61313}
    .fil0 {fill:#2C9650}
   ]]>
  </style>
 </defs>
 <g id="Layer_x0020_1">
  <metadata id="CorelCorpID_0Corel-Layer"/>
  <path class="fil0 str0" d="M2836.14 1065.77c586.66,0 1062.23,475.57 1062.23,1062.23 0,586.66 -475.55,1062.23 -1062.23,1062.23 -586.66,0 -1062.23,-475.55 -1062.23,-1062.23 0,-586.65 475.55,-1062.23 1062.23,-1062.23zm2832.6 1770.37c0,-1564.4 -1268.19,-2832.6 -2832.6,-2832.6 -1564.4,0 -2832.6,1268.19 -2832.6,2832.6 0,798.93 330.75,1520.61 862.8,2035.56 315.27,-778.47 1078.29,-1327.42 1969.8,-1327.42 891.51,0 1654.53,548.95 1969.8,1327.42 532.05,-514.97 862.8,-1236.63 862.8,-2035.57l0 0.01z"/>
 </g>
</svg>
